# xmcd
#
# Track frame offsets:
#	150
#	5972
#	24776
#	49094
#	63569
#	95614
#	118894
#
# Disc length: 1817 seconds
#
# Revision: 1
# Processed by: cddbd v1.5.1PL0 Copyright (c) Steve Scherf et al.
# Submitted via: EasyCDDAExtractor 5.0.6
#
DISCID=5b071707
DTITLE=Outkast - Bonus Stank Promo
DYEAR=2000
DGENRE=Hip-Hop
TTITLE0=True Dat
TTITLE1=Jazzy Belle
TTITLE2=Rosa Parks
TTITLE3=Skew It On The Bar-B
TTITLE4=Spottieottiedopaliscious
TTITLE5=Crumblin' Erb
TTITLE6=Atliens
EXTD=
EXTT0=
EXTT1=
EXTT2=
EXTT3=
EXTT4=
EXTT5=
EXTT6=
PLAYORDER=
